<?xml version="1.0" encoding="iso-8859-1"?>
<!-- Uploaded to: SVG Repo, www.svgrepo.com, Generator: SVG Repo Mixer Tools -->
<svg fill="#000000" height="800px" width="800px" version="1.1" id="Layer_1" xmlns="http://www.w3.org/2000/svg" xmlns:xlink="http://www.w3.org/1999/xlink" 
	 viewBox="0 0 512 512" xml:space="preserve">
<g>
	<g>
		<path d="M508.668,105.394L406.603,3.33c-4.184-4.181-10.81-4.423-15.279-0.73c-0.042,0.035-0.081,0.075-0.123,0.11
			c-0.233,0.198-0.465,0.399-0.686,0.619l-0.016,0.016c-0.003,0.003-0.008,0.007-0.011,0.01L355.07,38.774l-0.001,0.001
			l-34.925,34.926c-0.001,0.001-0.002,0.001-0.002,0.001l-35.419,35.418c-0.006,0.006-0.009,0.011-0.015,0.016l-26.511,26.511
			l-66.46-66.592c-0.002-0.002-0.005-0.005-0.007-0.007c0,0-0.001,0-0.001-0.001l-39.7-39.7
			c-13.539-13.536-31.541-20.992-50.689-20.992S64.191,15.811,50.653,29.35L40.002,40l-10.65,10.651
			C15.812,64.191,8.356,82.191,8.356,101.339c0,19.146,7.456,37.147,20.995,50.686l39.702,39.702
			c0.002,0.002,0.005,0.005,0.007,0.007l0.001,0.001l66.591,66.46L3.331,390.514c-4.442,4.442-4.442,11.644,0,16.087
			l102.065,102.065c2.221,2.22,5.132,3.332,8.043,3.332s5.823-1.111,8.043-3.332L253.92,376.23l97.551,97.358
			c0.033,0.033,0.069,0.06,0.102,0.093c0.34,0.361,0.672,0.726,1.025,1.078c4.105,4.104,12.259,8.764,43.849,15.008
			c0.001,0,0.003,0,0.005,0c39.178,7.743,92.344,13.563,94.588,13.808c0.411,0.044,0.821,0.067,1.231,0.067
			c3,0,5.898-1.188,8.042-3.332c2.437-2.438,3.637-5.848,3.265-9.273c-0.245-2.244-6.065-55.41-13.808-94.589
			c0-0.001,0-0.002,0-0.003c-6.244-31.589-10.904-39.743-15.008-43.849c-0.357-0.357-0.727-0.693-1.091-1.037
			c-0.028-0.028-0.052-0.06-0.081-0.09l-97.357-97.551l132.437-132.437C513.11,117.039,513.11,109.837,508.668,105.394z
			 M398.532,27.487l55.097,55.097l-19.332,19.332l-55.097-55.097L398.532,27.487z M328.184,97.834l35.072,35.073l-19.332,19.332
			l-35.072-35.073L328.184,97.834z M45.437,135.937c-9.241-9.242-14.331-21.529-14.331-34.599c0-13.071,5.09-25.358,14.332-34.6
			l10.651-10.651l10.651-10.65c9.242-9.242,21.53-14.332,34.6-14.332c13.071,0,25.358,5.09,34.6,14.332l31.658,31.657
			l-90.504,90.502L45.437,135.937z M117.16,308.859l55.097,55.097l-19.332,19.332l-55.097-55.097L117.16,308.859z M27.479,398.539
			l19.332-19.332l35.073,35.073l-19.332,19.332L27.479,398.539z M113.44,484.536l-34.818-34.818l27.392-27.393
			c2.133-2.134,3.332-5.027,3.332-8.043s-1.199-5.909-3.332-8.043L62.897,363.12l18.842-18.842l63.141,63.142
			c2.133,2.133,5.027,3.332,8.043,3.332s5.91-1.199,8.043-3.332l35.418-35.419c4.442-4.442,4.442-11.644,0-16.087l-63.141-63.141
			l18.427-18.427l85.979,85.978L113.44,484.536z M394.937,466.236c-20.461-4.344-25.57-7.188-26.462-7.777
			c-0.297-0.303-0.58-0.612-0.861-0.925c-0.117-0.131-0.231-0.262-0.346-0.394c-0.222-0.256-0.44-0.512-0.651-0.773
			c-0.075-0.092-0.149-0.185-0.222-0.279c-0.253-0.32-0.499-0.642-0.736-0.97c-0.019-0.027-0.039-0.055-0.058-0.082
			c-7.895-11.002-7.214-26.302,2.047-36.56c0.002-0.002,0.006-0.006,0.009-0.01c0.331-0.367,0.673-0.727,1.027-1.081
			c6.458-6.459,15.371-9.447,24.315-8.3l29.544,29.544L394.937,466.236z M479.302,479.3c-13.899-1.691-36.014-4.558-57.211-8.044
			l49.167-49.167C474.743,443.282,477.61,465.399,479.302,479.3z M454.996,365.568c0.055,0.04,0.109,0.077,0.163,0.117
			c0.297,0.215,0.589,0.439,0.879,0.668c0.125,0.099,0.25,0.197,0.374,0.298c0.224,0.181,0.444,0.369,0.663,0.558
			c0.171,0.148,0.341,0.296,0.51,0.448c0.295,0.266,0.589,0.535,0.876,0.816c0.589,0.893,3.433,6,7.777,26.462l-27.607,27.607
			l-29.544-29.544c-0.192-1.497-0.282-2.994-0.245-4.478c0.187-7.381,3.168-14.46,8.545-19.838c0.353-0.353,0.712-0.695,1.078-1.026
			c0.016-0.015,0.033-0.027,0.049-0.042C428.757,358.394,444.009,357.713,454.996,365.568z M428.256,338.252
			c-8.183,1.573-16.06,5.143-22.878,10.679c-0.123,0.099-0.243,0.201-0.365,0.303c-0.493,0.407-0.978,0.825-1.459,1.252
			c-0.168,0.15-0.337,0.297-0.504,0.449c-0.561,0.512-1.115,1.035-1.658,1.577c-0.03,0.03-0.06,0.056-0.09,0.085
			c-5.781,5.781-10.001,12.665-12.515,20.102L194.367,178.279c-4.442-4.441-11.644-4.441-16.087,0
			c-4.442,4.442-4.442,11.644,0,16.087l194.419,194.42c-4.494,1.519-8.787,3.657-12.756,6.392c-2.599,1.79-5.06,3.834-7.347,6.122
			c-0.028,0.028-0.053,0.058-0.082,0.086c-0.544,0.546-1.068,1.102-1.582,1.665c-0.149,0.164-0.295,0.33-0.441,0.495
			c-0.435,0.488-0.859,0.982-1.272,1.481c-0.093,0.114-0.189,0.225-0.281,0.34c-5.542,6.822-9.115,14.7-10.687,22.888L93.19,183.675
			l45.243-45.243l45.243-45.243L428.256,338.252z M360.325,237.649l-85.978-85.978l18.418-18.418l43.116,43.116
			c2.221,2.22,5.132,3.332,8.043,3.332c2.911,0,5.822-1.111,8.043-3.332l35.419-35.418c2.133-2.133,3.332-5.027,3.332-8.043
			s-1.199-5.909-3.332-8.043l-43.116-43.117l18.842-18.842l63.141,63.141c2.221,2.22,5.132,3.332,8.043,3.332
			s5.822-1.111,8.043-3.332l27.402-27.401l14.793,14.793L360.325,237.649z"/>
	</g>
</g>
<g>
	<g>
		<path d="M173.906,160.528c-0.135-0.717-0.364-1.433-0.648-2.126c-0.284-0.684-0.637-1.343-1.047-1.958
			c-0.409-0.626-0.887-1.206-1.41-1.729s-1.103-1.001-1.729-1.411c-0.614-0.409-1.274-0.762-1.968-1.046
			c-0.682-0.284-1.399-0.512-2.127-0.648c-1.467-0.296-2.969-0.296-4.436,0c-0.728,0.136-1.445,0.364-2.127,0.648
			c-0.694,0.284-1.354,0.637-1.968,1.046c-0.626,0.409-1.206,0.887-1.729,1.411c-0.523,0.523-1.001,1.103-1.41,1.729
			c-0.421,0.614-0.762,1.274-1.047,1.958c-0.284,0.693-0.512,1.409-0.648,2.126c-0.148,0.739-0.227,1.491-0.227,2.231
			c0,0.738,0.08,1.49,0.227,2.217c0.137,0.729,0.364,1.446,0.648,2.127c0.284,0.694,0.626,1.354,1.047,1.968
			c0.409,0.626,0.887,1.206,1.41,1.729c0.523,0.523,1.103,1.001,1.729,1.411c0.614,0.409,1.274,0.762,1.968,1.046
			c0.682,0.284,1.399,0.501,2.127,0.648c0.728,0.148,1.479,0.228,2.218,0.228c0.739,0,1.49-0.08,2.218-0.228
			c0.728-0.148,1.445-0.364,2.127-0.648c0.694-0.284,1.354-0.637,1.968-1.046c0.626-0.409,1.206-0.887,1.729-1.411
			c0.523-0.523,1.001-1.103,1.41-1.729c0.41-0.614,0.762-1.274,1.047-1.968c0.284-0.682,0.512-1.398,0.648-2.127
			c0.148-0.728,0.227-1.479,0.227-2.217C174.134,162.019,174.054,161.267,173.906,160.528z"/>
	</g>
</g>
</svg>